<svg xmlns="http://www.w3.org/2000/svg" width="27" height="28" viewBox="0 0 47.13 49.435">
  <g id="whatsapp_ikon" transform="translate(-1450.333 -356.57)">
    <g id="message-circle" transform="translate(1450.333 356.57)">
      <path id="Shape" d="M49.464,23.565a23.232,23.232,0,0,1-2.5,10.535A23.565,23.565,0,0,1,25.9,47.13a23.233,23.233,0,0,1-10.535-2.5l-11.341,4.8,2.1-12.925c-1.65-3.266-3.795-9.286-3.785-12.945A23.565,23.565,0,0,1,15.363,2.5,23.233,23.233,0,0,1,25.9,0h1.386A23.51,23.51,0,0,1,49.464,22.179v1.386Z" transform="translate(-2.333 0)" fill="#06d826"/>
    </g>
    <g id="phone" transform="translate(1460.833 367.263)">
      <path id="Shape-2" data-name="Shape" d="M26.682,20.361v4.094a2.751,2.751,0,0,1-.869,2.022,2.655,2.655,0,0,1-2.055.707,26.264,26.264,0,0,1-11.578-4.19,26.391,26.391,0,0,1-8.05-8.188A27.307,27.307,0,0,1,.011,2.975,2.759,2.759,0,0,1,.7.889,2.663,2.663,0,0,1,2.681,0H6.706A2.7,2.7,0,0,1,9.389,2.347a17.769,17.769,0,0,0,.939,3.835,2.763,2.763,0,0,1-.6,2.879l-1.7,1.733a21.654,21.654,0,0,0,8.05,8.188l1.7-1.733a2.65,2.65,0,0,1,2.831-.614,16.988,16.988,0,0,0,3.77.955A2.716,2.716,0,0,1,26.682,20.361Z" transform="translate(0 0)" fill="#fff"/>
    </g>
  </g>
</svg>
