<svg xmlns="http://www.w3.org/2000/svg" width="23" height="29" viewBox="0 0 26.73 27.243">
  <g id="Telefon_ikon_header" data-name="Telefon ikon header" transform="translate(-0.171 0)">
    <path id="Shape" d="M26.729,20.4v4.1a2.756,2.756,0,0,1-.871,2.026,2.66,2.66,0,0,1-2.059.708,26.31,26.31,0,0,1-11.6-4.2,26.437,26.437,0,0,1-8.064-8.2A27.356,27.356,0,0,1,.011,2.98,2.764,2.764,0,0,1,.7.891,2.668,2.668,0,0,1,2.685,0H6.717A2.7,2.7,0,0,1,9.405,2.352a17.8,17.8,0,0,0,.941,3.841,2.768,2.768,0,0,1-.6,2.885L8.034,10.814a21.692,21.692,0,0,0,8.064,8.2l1.707-1.736a2.655,2.655,0,0,1,2.836-.615,17.019,17.019,0,0,0,3.777.957A2.721,2.721,0,0,1,26.729,20.4Z" transform="translate(0.17 0)" fill="red"/>
  </g>
</svg>
