<?xml version="1.0" encoding="utf-8"?>
<!-- Generator: Adobe Illustrator 24.0.3, SVG Export Plug-In . SVG Version: 6.00 Build 0)  -->
<svg version="1.1" id="Layer_1" xmlns="http://www.w3.org/2000/svg" xmlns:xlink="http://www.w3.org/1999/xlink" x="0px" y="0px"
	 viewBox="0 0 120 19.39" style="enable-background:new 0 0 120 19.39;" xml:space="preserve">
<style type="text/css">
	.st0{fill:#231F20;}
	.st1{fill:#D02027;}
</style>
<g>
	<path class="st0" d="M27.49,6.18L25.8,17.4h-2.29l2.47-14.56h3.02l2.44,14.56h-2.31L27.49,6.18z"/>
	<path class="st0" d="M77.69,11.3l-2.94-8.47h2.42l1.63,5.23l1.61-5.23h2.43l-2.95,8.47v6.1h-2.19V11.3z"/>
	<path class="st0" d="M94.55,17.4h-2.2V2.83h3.15l2.05,10.46l1.96-10.46h3.03V17.4h-2.2V8.25l-1.9,9.15h-1.77l-2.13-9.13V17.4z"/>
	<path class="st0" d="M114.46,12.78v4.62h-2.2V2.83h2.2v5.19l2.68-5.19h2.34l-3.01,5.94L120,17.4h-2.58l-2.3-5.91L114.46,12.78z"/>
	<path class="st0" d="M43.91,12.78v4.62h-2.2V2.83h2.2v5.19l2.68-5.19h2.34l-3.01,5.94l3.52,8.63h-2.58l-2.31-5.91L43.91,12.78z"/>
	<path class="st0" d="M62.29,13.92c0,0.96-0.34,1.78-1.01,2.46c-0.67,0.68-1.49,1.02-2.44,1.02h-3.45V2.83h3.45
		c0.96,0,1.78,0.34,2.45,1.02s1.01,1.5,1.01,2.45V13.92z M57.58,15.23h1.32c0.35,0,0.64-0.13,0.88-0.38
		c0.24-0.25,0.36-0.55,0.36-0.89V6.34c0-0.35-0.12-0.65-0.37-0.89c-0.24-0.25-0.54-0.37-0.88-0.37h-1.32V15.23z"/>
	<path class="st0" d="M67.77,6.18L66.08,17.4H63.8l2.47-14.56h3.02l2.44,14.56h-2.31L67.77,6.18z"/>
	<path class="st0" d="M84.59,17.4V2.83h6.25v2.21h-4.05v3.97h2.96v2.21h-2.96v3.97h4.05v2.21H84.59z"/>
	<path class="st0" d="M104.5,17.4V2.83h6.25v2.21h-4.05v3.97h2.96v2.21h-2.96v3.97h4.05v2.21H104.5z"/>
	<path class="st0" d="M39.89,13.78c0.02,1.01-0.25,1.88-0.79,2.6c-0.36,0.49-0.86,0.83-1.51,1.03c-0.35,0.11-0.76,0.16-1.22,0.16
		c-0.86,0-1.57-0.21-2.14-0.64c-0.47-0.35-0.85-0.82-1.12-1.42c-0.28-0.6-0.44-1.29-0.48-2.06l2.09-0.15
		c0.09,0.85,0.32,1.46,0.67,1.84c0.26,0.29,0.57,0.42,0.91,0.41c0.48-0.02,0.86-0.25,1.15-0.71c0.15-0.22,0.22-0.55,0.22-0.96
		c0-0.6-0.28-1.21-0.82-1.8c-0.43-0.41-1.08-1.03-1.95-1.85c-0.73-0.71-1.24-1.34-1.54-1.9c-0.33-0.63-0.49-1.31-0.49-2.05
		c0-1.33,0.45-2.33,1.34-3.01c0.55-0.41,1.23-0.62,2.04-0.62c0.78,0,1.45,0.17,2.01,0.52c0.43,0.27,0.78,0.65,1.05,1.14
		c0.27,0.49,0.43,1.05,0.48,1.68l-2.1,0.38c-0.06-0.6-0.23-1.06-0.51-1.39c-0.2-0.24-0.49-0.36-0.87-0.36
		c-0.4,0-0.71,0.18-0.92,0.53c-0.17,0.29-0.26,0.64-0.26,1.07c0,0.67,0.29,1.34,0.86,2.03c0.22,0.26,0.54,0.57,0.98,0.93
		c0.51,0.43,0.85,0.72,1.01,0.89c0.54,0.54,0.96,1.08,1.25,1.6c0.14,0.25,0.25,0.48,0.34,0.69C39.78,12.9,39.88,13.37,39.89,13.78z"
		/>
	<path class="st0" d="M53.42,17.4h-2.2V2.84h2.2V17.4z"/>
	<g>
		<g>
			<path class="st1" d="M11.64,18.08c-0.6,0.13-1.21,0.2-1.85,0.2c-4.69,0-8.49-3.8-8.49-8.49C1.3,5.1,5.1,1.3,9.79,1.3
				c4.69,0,8.49,3.8,8.49,8.49c0,2.03-0.71,3.89-1.9,5.35c0.43-0.33,1.25-1.21,2.21-3.45c0,0-0.13,0.93-0.32,1.63
				c0,0,0.75-1.24,0.99-2.6c0,0,0.08,0.63,0.03,1.46c0.19-0.76,0.29-1.56,0.29-2.38C19.59,4.39,15.2,0,9.79,0C4.39,0,0,4.39,0,9.79
				c0,4.74,3.36,8.69,7.83,9.6c-1.31-0.53-1.9-0.94-1.9-0.94c1.3,0.35,3.14,0.56,3.14,0.56c-0.97-0.26-1.91-0.65-1.91-0.65
				C9.41,18.78,10.93,18.37,11.64,18.08z"/>
			<path class="st1" d="M13.27,18.95c0,0,3.31-0.77,5-4.26C18.27,14.69,16.79,17.44,13.27,18.95z"/>
		</g>
		<g>
			<path class="st1" d="M12.14,16.29c0,0-0.33-0.37-0.4-0.7c0,0-2.28,0.04-4.41-1.26c-0.09-0.16-0.18-0.37-0.19-0.54
				c0.06,0.07,0.15,0.12,0.26,0.12c0.18,0,0.33-0.15,0.33-0.33s-0.15-0.33-0.33-0.33c-0.11,0-0.2,0.05-0.26,0.13
				c-0.11,0.11-0.18,0.34-0.01,0.82c-0.47-0.31-0.93-0.68-1.35-1.14c1.08-0.69,0.32-2.22,0.32-2.22c-0.86,0.97-0.6,1.77-0.44,2.09
				c-0.39-0.45-0.75-0.97-1.04-1.58c0.97-0.53,0.43-1.96,0.43-1.96c-0.64,0.58-0.68,1.19-0.61,1.58c-0.22-0.51-0.39-1.08-0.52-1.72
				C4.87,8.4,3.77,6.91,3.77,6.91C2.77,8.5,3.61,9.15,3.82,9.27c0.04,0.33,0.11,0.74,0.23,1.17C3.87,10.1,3.47,9.66,2.51,9.57
				c0,0,0.24,1.76,1.67,1.3c0.14,0.41,0.32,0.85,0.56,1.29c-0.23-0.25-0.73-0.53-1.75-0.34c0,0,0.87,1.42,1.93,0.65
				c0.27,0.44,0.61,0.88,1.02,1.29c-0.28-0.16-0.85-0.29-1.85,0.24c0,0,1.36,0.96,2.06-0.04C7.39,15.12,9.28,16.05,12.14,16.29z"/>
			<path class="st1" d="M7.41,16.29c0,0,0.33-0.37,0.4-0.7c0,0,2.28,0.04,4.41-1.26c0.09-0.16,0.18-0.37,0.19-0.54
				c-0.06,0.07-0.15,0.12-0.26,0.12c-0.18,0-0.33-0.15-0.33-0.33s0.15-0.33,0.33-0.33c0.11,0,0.2,0.05,0.26,0.13
				c0.11,0.11,0.18,0.34,0.01,0.82c0.47-0.31,0.93-0.68,1.35-1.14c-1.08-0.69-0.32-2.22-0.32-2.22c0.86,0.97,0.61,1.77,0.44,2.09
				c0.39-0.45,0.74-0.97,1.04-1.58c-0.97-0.53-0.43-1.96-0.43-1.96c0.64,0.58,0.68,1.19,0.61,1.58c0.22-0.51,0.39-1.08,0.52-1.72
				c-0.95-0.85,0.14-2.34,0.14-2.34c1.01,1.59,0.16,2.23-0.05,2.36c-0.04,0.33-0.11,0.74-0.23,1.17c0.17-0.35,0.58-0.79,1.54-0.87
				c0,0-0.24,1.76-1.67,1.3c-0.14,0.41-0.32,0.85-0.56,1.29c0.23-0.25,0.73-0.53,1.75-0.34c0,0-0.88,1.42-1.93,0.65
				c-0.27,0.44-0.61,0.88-1.02,1.29c0.28-0.16,0.85-0.29,1.85,0.24c0,0-1.36,0.96-2.06-0.04C12.16,15.12,10.27,16.05,7.41,16.29z"/>
			<g>
				<path class="st1" d="M9.73,12.3C9.14,12.31,8.56,12.24,8,12.03c-0.36-0.14-0.62-0.38-0.7-0.82c-0.02-0.09-0.1-0.19-0.18-0.24
					c-0.6-0.36-1.01-0.89-1.3-1.56C5.58,8.86,5.47,8.3,5.48,7.7c0-0.28,0.11-0.48,0.35-0.56C6.2,7,6.58,6.85,6.97,6.8
					c0.84-0.1,1.68-0.18,2.52-0.2c1.12-0.04,2.25,0.03,3.35,0.27c0.3,0.07,0.6,0.2,0.89,0.32c0.18,0.08,0.26,0.24,0.26,0.46
					c0.02,1.29-0.41,2.35-1.35,3.13c-0.24,0.2-0.47,0.34-0.56,0.69c-0.08,0.32-0.35,0.46-0.61,0.56c-0.45,0.18-0.92,0.26-1.4,0.27
					C9.95,12.3,9.84,12.3,9.73,12.3z M7.29,8.92c1.15,0.04,2.29,0.12,3.44,0.02c0.89-0.07,1.78-0.17,2.64-0.46
					c0.14-0.05,0.2-0.13,0.21-0.29c0-0.11-0.03-0.15-0.13-0.11c-0.1,0.04-0.21,0.08-0.32,0.11c-0.7,0.19-1.42,0.26-2.14,0.3
					C9.6,8.59,8.23,8.56,6.87,8.32C6.55,8.26,6.24,8.17,5.9,8.08c-0.02,0.3,0.07,0.58,0.16,0.84c0.39,1.11,1.2,1.77,2.16,2.26
					c-0.1,0.02-0.2,0.01-0.3,0.01c-0.04,0-0.08,0.03-0.13,0.05c0.02,0.04,0.02,0.11,0.05,0.13c0.16,0.11,0.32,0.23,0.5,0.29
					c0.77,0.25,1.56,0.22,2.35,0.11c0.32-0.04,0.65-0.12,0.91-0.37c0.04-0.04,0.05-0.11,0.08-0.17c-0.05-0.01-0.1-0.03-0.16-0.03
					c-0.09-0.01-0.18,0-0.29,0c0.34-0.22,0.66-0.4,0.96-0.62c0.46-0.34,0.83-0.78,1.08-1.32c0.03-0.07,0.03-0.16,0.04-0.24
					c-0.06-0.01-0.13-0.04-0.19-0.03c-0.89,0.21-1.8,0.27-2.71,0.28C9.59,9.28,8.76,9.2,7.94,9.07C7.72,9.03,7.51,8.97,7.29,8.92z
					 M5.86,7.57c0.13,0.06,0.2,0.12,0.28,0.14C6.4,7.78,6.66,7.84,6.92,7.89c1.11,0.22,2.23,0.23,3.36,0.21
					c1.01-0.02,2.03-0.1,3.01-0.38c0.1-0.03,0.19-0.08,0.28-0.12c0-0.02,0-0.04,0-0.06c-0.06-0.03-0.13-0.09-0.19-0.1
					c-0.61-0.12-1.22-0.27-1.83-0.34c-1.22-0.14-2.44-0.13-3.66,0c-0.6,0.07-1.19,0.22-1.79,0.33C6.03,7.45,5.97,7.51,5.86,7.57z"/>
				<path class="st1" d="M9.37,2.29C9.33,2.4,9.29,2.47,9.27,2.55C9.1,3,9.2,3.41,9.38,3.82c0.11,0.25,0.24,0.5,0.34,0.75
					C9.9,5.05,9.8,5.42,9.44,5.7C9.41,5.72,9.38,5.73,9.32,5.77c0.21-0.48,0-0.86-0.15-1.25C9.05,4.18,8.9,3.85,8.81,3.5
					C8.69,3.01,8.93,2.53,9.37,2.29z"/>
				<path class="st1" d="M10.3,2.92c0,0.02,0,0.04-0.01,0.06c-0.14,0.29-0.09,0.58,0.03,0.87c0.08,0.18,0.17,0.35,0.24,0.54
					c0.11,0.28,0.06,0.53-0.12,0.69c-0.02,0.02-0.05,0.03-0.11,0.07c0.1-0.33-0.03-0.58-0.14-0.84c-0.08-0.2-0.17-0.41-0.22-0.62
					C9.9,3.36,10.04,3.04,10.3,2.92z"/>
			</g>
		</g>
	</g>
</g>
</svg>
